<svg xmlns="http://www.w3.org/2000/svg" viewBox="0 0 80 80">
  <defs><linearGradient x1="50%" x2="50%" y1="0%" y2="100%" id="g"><stop stop-color="#73592e" offset="0%"/><stop stop-color="#333" offset="100%"/></linearGradient></defs>
  <g transform="translate(17, 0)">
    <path fill="#f6a623" d="M24 13C31.2 13 37 10.7 37 7 37 3.3 31.2 1 24 1 16.8 1 11 3.3 11 7 11 10.7 16.8 13 24 13ZM24 11C18.2 11 13.5 9.1 13.5 7.5 13.5 5.9 18.2 4 24 4 29.8 4 34.5 5.9 34.5 7.5 34.5 9.1 29.8 11 24 11Z"/>
    <path fill="url(#g)" d="M24 41C24 41 24 41 24 41 23.7 41 23.4 41.1 23.2 41.3 23 41.6 22.8 41.8 22.5 41.9 21.9 42.3 21.2 42.3 20.6 42.2 20.5 42.1 20.4 42.1 20.4 42.1 19.9 41.9 19.3 42.1 19.1 42.6 18.9 43.1 19.1 43.7 19.6 43.9 19.7 44 19.9 44 20.1 44.1 21.2 44.4 22.4 44.3 23.5 43.7 23.7 43.6 23.8 43.5 24 43.4L24 43.4C24.2 43.5 24.3 43.6 24.5 43.7 25.6 44.3 26.8 44.4 27.9 44.1 28.1 44 28.3 44 28.4 43.9 28.9 43.7 29.1 43.1 28.9 42.6 28.7 42.1 28.1 41.9 27.6 42.1 27.6 42.1 27.5 42.1 27.4 42.2 26.7 42.3 26.1 42.3 25.5 41.9 25.2 41.8 25 41.6 24.8 41.3 24.6 41.1 24.3 41 24 41 25 41 26.5 38.7 26 38 25.5 37.3 22.5 37.2 22 38 21.5 38.8 23 41 24 41ZM9.5 76.3L11.2 79.2 12.2 76C13.8 70.7 17.4 67.8 26.9 62.7 27.4 62.4 27.7 62.2 27.9 62.1 34.9 58.3 38.2 56.1 41.1 52.6 45 48 46.6 42.3 45.4 34.8 45.3 33.4 44.9 31.9 44.5 30.5 44.5 29.5 44.4 28.2 44.4 26.8 44.3 24.7 44.1 22.6 43.9 20.6 43.3 14.4 42.5 11.2 40.4 10.6 37.5 9.9 35.2 12.1 32.3 17.1 29.7 16.1 26.9 15.5 24 15.5 21.1 15.5 18.3 16.1 15.7 17.1 12.8 12.1 10.5 9.9 7.6 10.6 5.5 11.2 4.7 14.4 4.1 20.6 3.9 22.6 3.7 24.7 3.6 26.9 3.6 28.2 3.5 29.5 3.5 30.5 3.4 30.8 3.3 31.1 3.3 31.3 -1.9 44.9 1 62.1 9.5 76.3ZM13.8 19.8L14.5 21 15.8 20.4C18.3 19.2 21.1 18.5 24 18.5 26.9 18.5 29.7 19.2 32.2 20.4L33.5 21 34.2 19.8C36.5 15.7 38.4 13.5 39.4 13.5 39.4 13.5 39.5 13.6 39.5 13.6 39.7 14 39.9 14.6 40.1 15.3 40.4 16.7 40.7 18.6 40.9 20.9 41.1 22.8 41.3 24.9 41.4 27 41.4 28.4 41.5 29.7 41.5 30.7L41.5 31 41.6 31.2C42 32.5 42.3 33.8 42.4 35.2 43.5 41.9 42.2 46.8 38.9 50.7 36.3 53.8 33.1 55.9 26.4 59.5 26.2 59.6 26 59.8 25.5 60 17.1 64.6 12.8 67.6 10.5 72.1 3.6 59.2 1.5 44.2 6.1 32.4 6.2 31.9 6.3 31.5 6.4 31.2L6.5 31 6.5 30.8C6.5 29.7 6.6 28.5 6.6 27 6.7 24.9 6.9 22.8 7.1 20.9 7.3 18.6 7.6 16.7 7.9 15.3 8.1 14.6 8.3 14 8.5 13.7 8.5 13.6 8.5 13.5 8.6 13.5 9.6 13.5 11.5 15.7 13.8 19.8ZM20.8 32.8C18.6 30.4 14.4 30.4 12.2 32.8 11.9 33.3 11.9 33.9 12.3 34.3 12.8 34.6 13.4 34.6 13.8 34.2 15.1 32.6 17.9 32.6 19.2 34.2 19.6 34.6 20.2 34.6 20.7 34.3 21.1 33.9 21.1 33.3 20.8 32.8ZM35.8 32.8C33.6 30.4 29.4 30.4 27.2 32.8 26.9 33.3 26.9 33.9 27.3 34.3 27.8 34.6 28.4 34.6 28.8 34.2 30.1 32.6 32.9 32.6 34.2 34.2 34.6 34.6 35.2 34.6 35.7 34.3 36.1 33.9 36.1 33.3 35.8 32.8Z"/>
  </g>
</svg>
